<mxfile host="Electron" modified="2024-05-20T12:00:11.997Z" agent="Mozilla/5.0 (Windows NT 10.0; Win64; x64) AppleWebKit/537.36 (KHTML, like Gecko) draw.io/23.1.5 Chrome/120.0.6099.109 Electron/28.1.0 Safari/537.36" etag="_cNnyXkAWuTvXNrX_vtt" version="23.1.5" type="device">
  <diagram name="Page-1" id="DdEg1cDVtEoIRPBLH_Wo">
    <mxGraphModel dx="1877" dy="621" grid="1" gridSize="10" guides="1" tooltips="1" connect="1" arrows="1" fold="1" page="1" pageScale="1" pageWidth="827" pageHeight="1169" math="0" shadow="0">
      <root>
        <mxCell id="0" />
        <mxCell id="1" parent="0" />
        <mxCell id="mXtGVu5ud28bIMlFbWb--1" value="cbi:CognitiveBias" style="rounded=1;arcSize=10;whiteSpace=wrap;html=1;align=center;fillColor=#f0a30a;strokeColor=#BD7000;fontColor=#000000;" parent="1" vertex="1">
          <mxGeometry x="510" y="360" width="150" height="50" as="geometry" />
        </mxCell>
        <mxCell id="mXtGVu5ud28bIMlFbWb--11" value="rdfs:subClassOf" style="edgeStyle=orthogonalEdgeStyle;rounded=0;orthogonalLoop=1;jettySize=auto;html=1;entryX=0;entryY=0.5;entryDx=0;entryDy=0;" parent="1" source="mXtGVu5ud28bIMlFbWb--4" target="mXtGVu5ud28bIMlFbWb--1" edge="1">
          <mxGeometry relative="1" as="geometry" />
        </mxCell>
        <mxCell id="mXtGVu5ud28bIMlFbWb--12" value="reaction:hasOutcome" style="edgeStyle=orthogonalEdgeStyle;rounded=0;orthogonalLoop=1;jettySize=auto;html=1;" parent="1" source="mXtGVu5ud28bIMlFbWb--4" target="mXtGVu5ud28bIMlFbWb--8" edge="1">
          <mxGeometry relative="1" as="geometry" />
        </mxCell>
        <mxCell id="mXtGVu5ud28bIMlFbWb--4" value="cbi:ContextEffect" style="rounded=1;arcSize=10;whiteSpace=wrap;html=1;align=center;fillColor=#f0a30a;strokeColor=#BD7000;fontColor=#000000;" parent="1" vertex="1">
          <mxGeometry x="240" y="360" width="150" height="50" as="geometry" />
        </mxCell>
        <mxCell id="mXtGVu5ud28bIMlFbWb--13" value="reaction:hasOutcome" style="edgeStyle=orthogonalEdgeStyle;rounded=0;orthogonalLoop=1;jettySize=auto;html=1;" parent="1" source="mXtGVu5ud28bIMlFbWb--5" edge="1">
          <mxGeometry relative="1" as="geometry">
            <mxPoint x="20" y="350" as="targetPoint" />
          </mxGeometry>
        </mxCell>
        <mxCell id="mXtGVu5ud28bIMlFbWb--5" value="fs:Deciding" style="rounded=1;arcSize=10;whiteSpace=wrap;html=1;align=center;fillColor=#f0a30a;strokeColor=#BD7000;fontColor=#000000;" parent="1" vertex="1">
          <mxGeometry x="240" y="270" width="150" height="50" as="geometry" />
        </mxCell>
        <mxCell id="mXtGVu5ud28bIMlFbWb--14" value="cbi:affects" style="edgeStyle=orthogonalEdgeStyle;rounded=0;orthogonalLoop=1;jettySize=auto;html=1;entryX=1;entryY=0.5;entryDx=0;entryDy=0;" parent="1" source="mXtGVu5ud28bIMlFbWb--6" target="mXtGVu5ud28bIMlFbWb--5" edge="1">
          <mxGeometry relative="1" as="geometry" />
        </mxCell>
        <mxCell id="mXtGVu5ud28bIMlFbWb--15" value="cbi:affects" style="edgeStyle=orthogonalEdgeStyle;rounded=0;orthogonalLoop=1;jettySize=auto;html=1;entryX=1;entryY=0.5;entryDx=0;entryDy=0;" parent="1" source="mXtGVu5ud28bIMlFbWb--6" target="mXtGVu5ud28bIMlFbWb--9" edge="1">
          <mxGeometry relative="1" as="geometry">
            <Array as="points">
              <mxPoint x="710" y="295" />
              <mxPoint x="710" y="510" />
              <mxPoint x="660" y="510" />
            </Array>
          </mxGeometry>
        </mxCell>
        <mxCell id="mXtGVu5ud28bIMlFbWb--6" value="cbi:Context" style="rounded=1;arcSize=10;whiteSpace=wrap;html=1;align=center;fillColor=#f0a30a;strokeColor=#BD7000;fontColor=#000000;" parent="1" vertex="1">
          <mxGeometry x="510" y="270" width="150" height="50" as="geometry" />
        </mxCell>
        <mxCell id="mXtGVu5ud28bIMlFbWb--16" value="emotion:pertainsTo" style="edgeStyle=orthogonalEdgeStyle;rounded=0;orthogonalLoop=1;jettySize=auto;html=1;entryX=0.5;entryY=0;entryDx=0;entryDy=0;" parent="1" source="mXtGVu5ud28bIMlFbWb--7" target="mXtGVu5ud28bIMlFbWb--6" edge="1">
          <mxGeometry relative="1" as="geometry" />
        </mxCell>
        <mxCell id="mXtGVu5ud28bIMlFbWb--17" value="cbi:hasStimulus" style="edgeStyle=orthogonalEdgeStyle;rounded=0;orthogonalLoop=1;jettySize=auto;html=1;exitX=0;exitY=0.5;exitDx=0;exitDy=0;entryX=1;entryY=0.5;entryDx=0;entryDy=0;" parent="1" source="mXtGVu5ud28bIMlFbWb--7" target="mXtGVu5ud28bIMlFbWb--10" edge="1">
          <mxGeometry relative="1" as="geometry" />
        </mxCell>
        <mxCell id="mXtGVu5ud28bIMlFbWb--7" value="dul:Situation" style="rounded=1;arcSize=10;whiteSpace=wrap;html=1;align=center;fillColor=#f0a30a;strokeColor=#BD7000;fontColor=#000000;" parent="1" vertex="1">
          <mxGeometry x="510" y="150" width="150" height="50" as="geometry" />
        </mxCell>
        <mxCell id="mXtGVu5ud28bIMlFbWb--8" value="cbcm:Behaviour" style="rounded=1;arcSize=10;whiteSpace=wrap;html=1;align=center;fillColor=#f0a30a;strokeColor=#BD7000;fontColor=#000000;" parent="1" vertex="1">
          <mxGeometry x="-50" y="360" width="150" height="50" as="geometry" />
        </mxCell>
        <mxCell id="mXtGVu5ud28bIMlFbWb--9" value="cbi:Perception" style="rounded=1;arcSize=10;whiteSpace=wrap;html=1;align=center;fillColor=#f0a30a;strokeColor=#BD7000;fontColor=#000000;" parent="1" vertex="1">
          <mxGeometry x="510" y="490" width="150" height="50" as="geometry" />
        </mxCell>
        <mxCell id="mXtGVu5ud28bIMlFbWb--10" value="emotion:Stimulus" style="rounded=1;arcSize=10;whiteSpace=wrap;html=1;align=center;fillColor=#f0a30a;strokeColor=#BD7000;fontColor=#000000;" parent="1" vertex="1">
          <mxGeometry x="240" y="150" width="150" height="50" as="geometry" />
        </mxCell>
        <mxCell id="ojo76PO1hh8cLvLY9vsM-5" value="&lt;p style=&quot;margin: 4px 0px 0px; text-decoration: underline; font-size: 11px;&quot;&gt;&lt;b&gt;&lt;font style=&quot;font-size: 11px;&quot;&gt;Prefixes&lt;/font&gt;&lt;/b&gt;&lt;/p&gt;&lt;hr style=&quot;font-size: 11px;&quot;&gt;&lt;div style=&quot;text-align: left; font-size: 11px;&quot;&gt;&lt;span style=&quot;background-color: initial;&quot;&gt;&lt;font style=&quot;font-size: 11px;&quot;&gt;&amp;nbsp; emotion: http://ns.inria.fr/emoca/&lt;/font&gt;&lt;/span&gt;&lt;/div&gt;&lt;p style=&quot;text-align: left; margin: 0px 0px 0px 8px; font-size: 11px;&quot;&gt;&lt;font style=&quot;font-size: 11px;&quot;&gt;&lt;span style=&quot;background-color: initial;&quot;&gt;fs:&amp;nbsp;&lt;/span&gt;&lt;a href=&quot;https://w3id.org/framester/data/framestercore/Preference&quot; class=&quot;iri&quot; style=&quot;background: transparent; margin: 0px 8px 8px 0px; padding: 0px; vertical-align: baseline; display: inline-block;&quot;&gt;&lt;font color=&quot;#000000&quot; style=&quot;font-size: 11px;&quot;&gt;https://w3id.org/framester/data/framestercore&lt;/font&gt;&lt;/a&gt;&lt;br&gt;&lt;/font&gt;&lt;/p&gt;&lt;p style=&quot;text-align: left; margin: 0px 0px 0px 8px; font-size: 11px;&quot;&gt;&lt;font style=&quot;font-size: 11px;&quot;&gt;cbi:&lt;/font&gt;&lt;span style=&quot;background-color: initial;&quot;&gt;https://github.com/ranacoskun/cognitive_bias_ontology&lt;/span&gt;&lt;span style=&quot;background-color: initial;&quot;&gt;&amp;nbsp;&lt;/span&gt;&lt;/p&gt;&lt;p style=&quot;text-align: left; margin: 0px 0px 0px 8px; font-size: 11px;&quot;&gt;&lt;font style=&quot;font-size: 11px;&quot;&gt;rdfs: https://www.w3.org/2000/01/rdf-schema#&lt;/font&gt;&lt;/p&gt;&lt;p style=&quot;text-align: left; margin: 0px 0px 0px 8px; font-size: 11px;&quot;&gt;&lt;font style=&quot;font-size: 11px;&quot;&gt;&lt;span style=&quot;background-color: initial;&quot;&gt;classification:&amp;nbsp;http://www.ontologydesignpatterns.org/cp/owl/classification.owl&amp;nbsp;&lt;/span&gt;&lt;/font&gt;&lt;/p&gt;&lt;p style=&quot;text-align: left; margin: 0px 0px 0px 8px; font-size: 11px;&quot;&gt;&lt;font style=&quot;font-size: 11px;&quot;&gt;cbcm: &lt;a style=&quot;color: rgb(17, 85, 204); font-family: Arial; font-size: 13px; text-decoration-skip-ink: none;&quot; class=&quot;waffle-rich-text-link&quot; href=&quot;http://w3id.org/um/cbcm/eu-cm-ontology#Behaviour&quot;&gt;http://w3id.org/um/cbcm/eu-cm-ontology#&lt;/a&gt;&lt;span style=&quot;background-color: initial;&quot;&gt;&lt;br&gt;&lt;/span&gt;&lt;/font&gt;&lt;/p&gt;&lt;p style=&quot;text-align: left; margin: 0px 0px 0px 8px; font-size: 11px;&quot;&gt;dul: &lt;a style=&quot;color: rgb(17, 85, 204); font-family: Arial; font-size: 13px; text-decoration-skip-ink: none;&quot; class=&quot;waffle-rich-text-link&quot; href=&quot;http://www.ontologydesignpatterns.org/ont/dul/DUL.owl#&quot;&gt;http://www.ontologydesignpatterns.org/ont/dul/DUL.owl#&lt;/a&gt;&lt;br&gt;&lt;/p&gt;" style="verticalAlign=top;align=center;overflow=fill;html=1;whiteSpace=wrap;" parent="1" vertex="1">
          <mxGeometry x="-230" y="95" width="444" height="160" as="geometry" />
        </mxCell>
        <mxCell id="ojo76PO1hh8cLvLY9vsM-6" value="fs:People" style="rounded=1;arcSize=10;whiteSpace=wrap;html=1;align=center;fillColor=#f0a30a;strokeColor=#BD7000;fontColor=#000000;" parent="1" vertex="1">
          <mxGeometry x="300" y="490" width="150" height="50" as="geometry" />
        </mxCell>
        <mxCell id="ojo76PO1hh8cLvLY9vsM-7" value="classification:isClassifiedBy" style="edgeStyle=orthogonalEdgeStyle;rounded=0;orthogonalLoop=1;jettySize=auto;html=1;exitX=1;exitY=0.5;exitDx=0;exitDy=0;entryX=0;entryY=0.5;entryDx=0;entryDy=0;" parent="1" source="ojo76PO1hh8cLvLY9vsM-8" target="ojo76PO1hh8cLvLY9vsM-6" edge="1">
          <mxGeometry relative="1" as="geometry" />
        </mxCell>
        <mxCell id="ojo76PO1hh8cLvLY9vsM-9" style="edgeStyle=orthogonalEdgeStyle;rounded=0;orthogonalLoop=1;jettySize=auto;html=1;exitX=0.5;exitY=0;exitDx=0;exitDy=0;" parent="1" source="ojo76PO1hh8cLvLY9vsM-8" target="mXtGVu5ud28bIMlFbWb--4" edge="1">
          <mxGeometry relative="1" as="geometry" />
        </mxCell>
        <mxCell id="ojo76PO1hh8cLvLY9vsM-10" value="cbi:affectedBy" style="edgeLabel;html=1;align=center;verticalAlign=middle;resizable=0;points=[];" parent="ojo76PO1hh8cLvLY9vsM-9" vertex="1" connectable="0">
          <mxGeometry x="0.1104" y="-3" relative="1" as="geometry">
            <mxPoint as="offset" />
          </mxGeometry>
        </mxCell>
        <mxCell id="ojo76PO1hh8cLvLY9vsM-8" value="cbi:BiasedAgent" style="rounded=1;arcSize=10;whiteSpace=wrap;html=1;align=center;fillColor=#f0a30a;strokeColor=#BD7000;fontColor=#000000;" parent="1" vertex="1">
          <mxGeometry x="-70" y="490" width="150" height="50" as="geometry" />
        </mxCell>
      </root>
    </mxGraphModel>
  </diagram>
</mxfile>
